<svg width="26" height="26" viewBox="0 0 26 26" fill="none" xmlns="http://www.w3.org/2000/svg">
<circle cx="13" cy="13" r="13" fill="#FF7518" fill-opacity="0.1"/>
<path fill-rule="evenodd" clip-rule="evenodd" d="M17.3632 5.4847C17.0528 5.17435 16.6318 5 16.1928 5C15.7538 5 15.3328 5.17435 15.0224 5.4847L6.48506 14.022C6.17457 14.3324 6.00009 14.7534 6 15.1924V19.524C6 19.985 6.37497 20.36 6.83602 20.36H11.1684C11.6074 20.3599 12.0284 20.1854 12.3388 19.8749L20.8753 11.3368C21.1857 11.0264 21.36 10.6054 21.36 10.1664C21.36 9.72742 21.1857 9.30642 20.8753 8.99597L17.3632 5.4847ZM16.1928 6.65512L19.7049 10.1672L18.2762 11.5959L14.7641 8.0838L16.1928 6.65512ZM13.5937 9.25423L7.65548 15.1924V18.7037H11.1684L17.1066 12.7655L13.5945 9.2534L13.5937 9.25423Z" fill="#444444"/>
<path d="M16.2406 6.53589L14.7046 8.07189L18.2886 11.6559L19.8246 10.1199L16.2406 6.53589Z" fill="#FF7518"/>
</svg>
