<svg version="1.2" xmlns="http://www.w3.org/2000/svg" viewBox="0 0 448 512" width="448" height="512"><style>.s0{fill:#f58220}</style><path fill-rule="evenodd" class="s0" d="m438.1 81.2c2 0.8 3.7 2 5.2 3.5c1.5 1.5 2.7 3.2 3.5 5.2c0.8 1.9 1.2 4 1.2 6.1v16c0 2.1-0.4 4.2-1.2 6.1c-0.8 2-2 3.7-3.5 5.2c-1.5 1.5-3.2 2.7-5.2 3.5c-1.9 0.8-4 1.2-6.1 1.2h-16v336c0 6.3-1.2 12.5-3.7 18.4c-2.4 5.8-5.9 11.1-10.4 15.5c-4.4 4.5-9.7 8-15.5 10.4c-5.9 2.5-12.1 3.7-18.4 3.7h-288c-6.3 0-12.5-1.2-18.4-3.7c-5.8-2.4-11.1-5.9-15.5-10.4c-4.5-4.4-8-9.7-10.4-15.5c-2.5-5.9-3.7-12.1-3.7-18.4v-336h-16c-2.1 0-4.2-0.4-6.1-1.2c-2-0.8-3.7-2-5.2-3.5c-1.5-1.5-2.7-3.2-3.5-5.2c-0.8-1.9-1.2-4-1.2-6.1v-16c0-2.1 0.4-4.2 1.2-6.1c0.8-2 2-3.7 3.5-5.2c1.5-1.5 3.2-2.7 5.2-3.5c1.9-0.8 4-1.2 6.1-1.2h82.4l34-56.7c2.2-3.5 4.7-6.8 7.7-9.7c2.9-2.9 6.2-5.3 9.8-7.4c3.6-2 7.5-3.6 11.5-4.6c4-1.1 8.1-1.6 12.2-1.6h100.8c4.1 0 8.3 0.5 12.2 1.6c4 1 7.9 2.6 11.5 4.6c3.6 2.1 6.9 4.5 9.8 7.4c3 2.9 5.6 6.2 7.7 9.7l34 56.7h82.4c2.1 0 4.2 0.4 6.1 1.2zm-70.1 46.8h-288v336h288zm-213.6-48h139.2l-17.5-29.1q-0.4-0.7-0.9-1.2q-0.6-0.5-1.2-0.9q-0.7-0.4-1.5-0.6q-0.7-0.2-1.5-0.2h-94q-0.8 0-1.5 0.2q-0.8 0.2-1.5 0.6q-0.6 0.4-1.2 0.9q-0.6 0.5-1 1.2zm109.1 335.1c-1.5-0.6-2.8-1.5-3.9-2.6c-1.1-1.1-2-2.4-2.6-3.9c-0.6-1.5-1-3-1-4.6v-216c0-1.6 0.4-3.1 1-4.6c0.6-1.4 1.5-2.8 2.6-3.9c1.1-1.1 2.4-2 3.9-2.6c1.4-0.6 3-0.9 4.5-0.9h24c1.6 0 3.2 0.3 4.6 0.9c1.5 0.6 2.8 1.5 3.9 2.6c1.1 1.1 2 2.5 2.6 3.9c0.6 1.5 0.9 3 0.9 4.6v216c0 1.6-0.3 3.1-0.9 4.6c-0.6 1.5-1.5 2.8-2.6 3.9c-1.1 1.1-2.4 2-3.9 2.6c-1.4 0.6-3 0.9-4.6 0.9h-24c-1.5 0-3.1-0.3-4.5-0.9zm-112 0c-1.5-0.6-2.8-1.5-3.9-2.6c-1.1-1.1-2-2.4-2.6-3.9c-0.6-1.5-1-3-1-4.6v-216c0-1.6 0.4-3.1 1-4.6c0.6-1.4 1.5-2.8 2.6-3.9c1.1-1.1 2.4-2 3.9-2.6c1.4-0.6 3-0.9 4.5-0.9h24c1.6 0 3.2 0.3 4.6 0.9c1.5 0.6 2.8 1.5 3.9 2.6c1.1 1.1 2 2.5 2.6 3.9c0.6 1.5 0.9 3 0.9 4.6v216c0 1.6-0.3 3.1-0.9 4.6c-0.6 1.5-1.5 2.8-2.6 3.9c-1.1 1.1-2.4 2-3.9 2.6c-1.4 0.6-3 0.9-4.6 0.9h-24c-1.5 0-3.1-0.3-4.5-0.9z" /></svg>